<?xml version="1.0" encoding="utf-8"?>
<!-- Generator: Adobe Illustrator 19.0.0, SVG Export Plug-In . SVG Version: 6.00 Build 0)  -->
<svg version="1.1" id="Layer_1" xmlns="http://www.w3.org/2000/svg" xmlns:xlink="http://www.w3.org/1999/xlink" x="0px" y="0px"
	 viewBox="-212 237.1 175 26.9" style="enable-background:new -212 237.1 175 26.9;" xml:space="preserve">
<style type="text/css">
	.st0{display:none;}
	.st1{display:inline;fill:none;}
	.st2{display:inline;}
	.st3{fill:none;}
</style>
<g id="XMLID_4_" class="st0">
	<path class="st1" d="M-302.7,688.1c-1.7-1.6-4.2-2.3-7.6-2.3h-11.2v18.3h11.2c3.4,0,5.9-0.7,7.6-2.2c1.7-1.5,2.5-3.6,2.5-6.4v-1.3
		C-300.3,691.7-301.1,689.6-302.7,688.1z"/>
</g>
<g id="XMLID_18_" class="st0">
	<polygon class="st1" points="-454.6,682.7 -454.6,705 -447,705 -453.8,682.7 	"/>
</g>
<g id="XMLID_20_" class="st0">
	<polygon class="st2" points="-497.2,702.4 -497.2,685.7 -472.7,685.7 -472.7,680.1 -503.2,680.1 -503.2,705 -473.1,705 
		-473.1,702.4 	"/>
</g>
<g id="XMLID_21_" class="st0">
	<polygon class="st2" points="-448.6,680.1 -460.7,680.1 -460.7,705 -454.6,705 -454.6,682.7 -453.8,682.7 -447,705 -441,705 	"/>
</g>
<g id="XMLID_22_" class="st0">
	<rect x="-433.2" y="680.1" class="st2" width="6" height="24.9"/>
</g>
<g id="XMLID_25_" class="st0">
	<polygon class="st2" points="-382.1,685.7 -382.1,680.1 -417.6,680.1 -417.6,685.7 -402.9,685.7 -402.9,705 -396.8,705 
		-396.8,685.7 	"/>
</g>
<g id="XMLID_28_" class="st0">
	<polygon class="st2" points="-365,702.4 -365,685.7 -340.5,685.7 -340.5,680.1 -371,680.1 -371,705 -340.9,705 -340.9,702.4 	"/>
</g>
<g id="XMLID_32_" class="st0">
	<path class="st2" d="M-295.8,701.6c1-1.9,1.5-3.7,1.5-5.6v-2.2c0-1.8-0.3-3.6-1-5.2c-0.6-1.7-1.6-3.1-2.9-4.4
		c-1.3-1.2-2.9-2.2-4.8-3c-1.8-0.7-4-1.1-6.6-1.1h-18V705h28.6C-297.6,704.1-296.5,702.9-295.8,701.6z M-302.7,702
		c-1.7,1.5-4.2,2.2-7.6,2.2h-11.2v-18.5h11.2c3.4,0,5.9,0.8,7.6,2.3c1.7,1.6,2.5,3.6,2.5,6.2v1.3
		C-300.3,698.3-301.1,700.5-302.7,702z"/>
</g>
<g id="XMLID_1_">
</g>
<g id="XMLID_2_">
</g>
<g id="XMLID_3_">
</g>
<g id="XMLID_5_">
</g>
<g id="XMLID_6_">
</g>
<g id="XMLID_7_">
</g>
<line class="st3" x1="-212" y1="237.1" x2="-208.1" y2="237.1"/>
<g>
	<polygon class="st3" points="-189.7,244.3 -191.4,244.3 -191.4,251.2 -192.2,264 -188.9,264 -189.7,251.2 	"/>
	<path class="st3" d="M-137.4,258.1c0-1.6-0.2-3.1-0.5-4.5c-0.3-1.4-0.9-2.6-1.6-3.6c-0.7-1-1.7-1.8-2.8-2.4
		c-1.2-0.6-2.5-0.9-4.2-0.9c-1.6,0-3,0.3-4.2,0.9c-1.2,0.6-2.1,1.4-2.8,2.4c-0.7,1-1.2,2.2-1.6,3.6c-0.3,1.4-0.5,2.9-0.5,4.5v5.9
		l18.1,0V258.1z"/>
	<path class="st3" d="M-100.6,248.2h-9.1v13.2h9.1c2.3,0,4.1-0.5,5.3-1.6c1.2-1.1,1.8-2.6,1.8-4.6v-0.9c0-1.7-0.6-3.1-1.8-4.4
		C-96.6,248.8-98.3,248.2-100.6,248.2z"/>
	<polygon points="-203.4,239.1 -212,239.1 -211.1,264 -202.6,264 	"/>
	<polygon points="-182.9,239.1 -198.2,239.1 -199.7,264 -192.2,264 -191.4,251.2 -191.4,244.3 -189.7,244.3 -189.7,251.2 
		-188.9,264 -181.4,264 	"/>
	<polygon points="-177.7,239.1 -178.5,264 -169.9,264 -169.1,239.1 	"/>
	<path d="M-132.8,243.5c-3.3-3.6-7.8-5.4-13.6-5.4c-5.8,0-10.4,1.8-13.6,5.4c-3.3,3.6-4.9,8.7-4.9,15.2v5.3l9.5,0v-5.9
		c0-1.6,0.2-3.1,0.5-4.5c0.3-1.4,0.9-2.6,1.6-3.6c0.7-1,1.7-1.8,2.8-2.4c1.2-0.6,2.5-0.9,4.2-0.9c1.6,0,3,0.3,4.2,0.9
		c1.2,0.6,2.1,1.4,2.8,2.4c0.7,1,1.2,2.2,1.6,3.6c0.3,1.4,0.5,2.9,0.5,4.5v5.9l9.5,0v-5.3C-127.9,252.2-129.5,247.1-132.8,243.5z"/>
	<path d="M-85.7,260.5c1.1-1.8,1.7-3.7,1.7-5.8V253c0-1.9-0.3-3.7-1-5.4c-0.7-1.7-1.7-3.2-3-4.4c-1.3-1.3-3-2.3-4.9-3
		c-2-0.7-4.2-1.1-6.8-1.1h-19.3V264l29.8,0C-87.8,263.1-86.6,261.9-85.7,260.5z M-93.6,255.2c0,2-0.6,3.5-1.8,4.6
		c-1.2,1.1-3,1.6-5.3,1.6h-9.1v-13.2h9.1c2.3,0,4.1,0.6,5.3,1.8c1.2,1.2,1.8,2.7,1.8,4.4V255.2z"/>
	<polygon points="-54.8,263.7 -39.2,239.5 -39.2,239.1 -49.9,239.1 -63.2,259.8 -65.3,259.8 -65.3,239.1 -74.8,239.1 -74.8,263.9 
		-54.8,263.9 	"/>
</g>
</svg>
