<?xml version="1.0" encoding="utf-8"?>
<!-- Generator: Adobe Illustrator 19.0.0, SVG Export Plug-In . SVG Version: 6.00 Build 0)  -->
<svg version="1.1" id="Layer_1" xmlns="http://www.w3.org/2000/svg" xmlns:xlink="http://www.w3.org/1999/xlink" x="0px" y="0px"
	 viewBox="-212 237.1 175 26.9" style="enable-background:new -212 237.1 175 26.9;" xml:space="preserve">
<style type="text/css">
	.st0{display:none;}
	.st1{display:inline;fill:none;}
	.st2{display:inline;}
	.st3{fill:none;}
</style>
<g id="XMLID_4_" class="st0">
	<path class="st1" d="M-302.7,688.1c-1.7-1.6-4.2-2.3-7.6-2.3h-11.2v18.3h11.2c3.4,0,5.9-0.7,7.6-2.2c1.7-1.5,2.5-3.6,2.5-6.4v-1.3
		C-300.3,691.7-301.1,689.6-302.7,688.1z"/>
</g>
<g id="XMLID_18_" class="st0">
	<polygon class="st1" points="-454.6,682.7 -454.6,705 -447,705 -453.8,682.7 	"/>
</g>
<g id="XMLID_20_" class="st0">
	<polygon class="st2" points="-497.2,702.4 -497.2,685.7 -472.7,685.7 -472.7,680.1 -503.2,680.1 -503.2,705 -473.1,705 
		-473.1,702.4 	"/>
</g>
<g id="XMLID_21_" class="st0">
	<polygon class="st2" points="-448.6,680.1 -460.7,680.1 -460.7,705 -454.6,705 -454.6,682.7 -453.8,682.7 -447,705 -441,705 	"/>
</g>
<g id="XMLID_22_" class="st0">
	<rect x="-433.2" y="680.1" class="st2" width="6" height="24.9"/>
</g>
<g id="XMLID_25_" class="st0">
	<polygon class="st2" points="-382.1,685.7 -382.1,680.1 -417.6,680.1 -417.6,685.7 -402.9,685.7 -402.9,705 -396.8,705 
		-396.8,685.7 	"/>
</g>
<g id="XMLID_28_" class="st0">
	<polygon class="st2" points="-365,702.4 -365,685.7 -340.5,685.7 -340.5,680.1 -371,680.1 -371,705 -340.9,705 -340.9,702.4 	"/>
</g>
<g id="XMLID_32_" class="st0">
	<path class="st2" d="M-295.8,701.6c1-1.9,1.5-3.7,1.5-5.6v-2.2c0-1.8-0.3-3.6-1-5.2c-0.6-1.7-1.6-3.1-2.9-4.4
		c-1.3-1.2-2.9-2.2-4.8-3c-1.8-0.7-4-1.1-6.6-1.1h-18V705h28.6C-297.6,704.1-296.5,702.9-295.8,701.6z M-302.7,702
		c-1.7,1.5-4.2,2.2-7.6,2.2h-11.2v-18.5h11.2c3.4,0,5.9,0.8,7.6,2.3c1.7,1.6,2.5,3.6,2.5,6.2v1.3
		C-300.3,698.3-301.1,700.5-302.7,702z"/>
</g>
<g id="XMLID_1_">
</g>
<g id="XMLID_2_">
</g>
<g id="XMLID_3_">
</g>
<g id="XMLID_5_">
</g>
<g id="XMLID_6_">
</g>
<g id="XMLID_7_">
</g>
<line class="st3" x1="-212" y1="237.1" x2="-208.1" y2="237.1"/>
<g>
	<path class="st3" d="M-155.1,248.2c0.3,1.4,0.8,2.6,1.5,3.6c0.7,1,1.7,1.8,2.8,2.3c1.2,0.6,2.6,0.8,4.3,0.8c1.7,0,3.2-0.3,4.3-0.8
		c1.2-0.6,2.1-1.3,2.8-2.3c0.7-1,1.2-2.2,1.5-3.6c0.3-1.4,0.4-2.9,0.4-4.6v-6.5l-18.1,0v6.5C-155.5,245.3-155.4,246.8-155.1,248.2z"
		/>
	<polygon class="st3" points="-180.6,257 -178.9,257 -178.9,250.5 -178.5,237.1 -181.4,237.1 -180.6,250.5 	"/>
	<polygon class="st3" points="-202.2,257 -200.5,257 -200.5,250.5 -199.7,237.1 -202.6,237.1 -202.2,250.5 	"/>
	<polygon points="-178.9,250.5 -178.9,257 -180.6,257 -180.6,250.5 -181.4,237.1 -188.9,237.1 -187.4,262.6 -170.8,262.6 
		-169.9,237.1 -178.5,237.1 	"/>
	<polygon points="-200.5,250.5 -200.5,257 -202.2,257 -202.2,250.5 -202.6,237.1 -211.1,237.1 -210.3,262.6 -193.7,262.6 
		-192.2,237.1 -199.7,237.1 	"/>
	<path d="M-137.4,243.6c0,1.7-0.1,3.2-0.4,4.6c-0.3,1.4-0.8,2.6-1.5,3.6c-0.7,1-1.7,1.8-2.8,2.3c-1.2,0.6-2.6,0.8-4.3,0.8
		c-1.7,0-3.2-0.3-4.3-0.8c-1.2-0.6-2.1-1.3-2.8-2.3c-0.7-1-1.2-2.2-1.5-3.6c-0.3-1.4-0.4-2.9-0.4-4.6v-6.5l-9.5,0v5.9
		c0,6.7,1.6,11.8,4.9,15.3c3.3,3.5,7.8,5.3,13.6,5.3c5.8,0,10.4-1.8,13.6-5.3c3.3-3.5,4.9-8.6,4.9-15.3v-6l-9.5,0V243.6z"/>
	<path d="M-119.2,262.6h9.5v-19h10.9c1.4,0,2.4,0.4,3,1.1c0.6,0.7,0.9,1.7,0.9,2.8v15.1h9.5v-17.4c0-1.7-0.5-3.1-1.5-4.2
		c-1-1.1-2.3-1.8-4-1.9v-1.3c0.5-0.2,1-0.5,1.4-0.7l-29.8,0V262.6z"/>
	<polygon points="-54.7,237 -74.8,237 -74.8,262.6 -65.3,262.6 -65.3,241.9 -63.2,241.9 -49.5,262.6 -38.3,262.6 -38.3,262.2 
		-54.7,238.1 	"/>
</g>
</svg>
