<?xml version="1.0" encoding="utf-8"?>
<!-- Generator: Adobe Illustrator 19.0.0, SVG Export Plug-In . SVG Version: 6.00 Build 0)  -->
<svg version="1.1" id="Layer_1" xmlns="http://www.w3.org/2000/svg" xmlns:xlink="http://www.w3.org/1999/xlink" x="0px" y="0px"
	 viewBox="-212 237.1 225 26.9" style="enable-background:new -212 237.1 225 26.9;" xml:space="preserve">
<style type="text/css">
	.st0{display:none;}
	.st1{display:inline;fill:none;}
	.st2{display:inline;}
	.st3{fill:none;}
</style>
<g id="XMLID_4_" class="st0">
	<path class="st1" d="M-302.7,688.1c-1.7-1.6-4.2-2.3-7.6-2.3h-11.2v18.3h11.2c3.4,0,5.9-0.7,7.6-2.2c1.7-1.5,2.5-3.6,2.5-6.4v-1.3
		C-300.3,691.7-301.1,689.6-302.7,688.1z"/>
</g>
<g id="XMLID_18_" class="st0">
	<polygon class="st1" points="-454.6,682.7 -454.6,705 -447,705 -453.8,682.7 	"/>
</g>
<g id="XMLID_20_" class="st0">
	<polygon class="st2" points="-497.2,702.4 -497.2,685.7 -472.7,685.7 -472.7,680.1 -503.2,680.1 -503.2,705 -473.1,705 
		-473.1,702.4 	"/>
</g>
<g id="XMLID_21_" class="st0">
	<polygon class="st2" points="-448.6,680.1 -460.7,680.1 -460.7,705 -454.6,705 -454.6,682.7 -453.8,682.7 -447,705 -441,705 	"/>
</g>
<g id="XMLID_22_" class="st0">
	<rect x="-433.2" y="680.1" class="st2" width="6" height="24.9"/>
</g>
<g id="XMLID_25_" class="st0">
	<polygon class="st2" points="-382.1,685.7 -382.1,680.1 -417.6,680.1 -417.6,685.7 -402.9,685.7 -402.9,705 -396.8,705 
		-396.8,685.7 	"/>
</g>
<g id="XMLID_28_" class="st0">
	<polygon class="st2" points="-365,702.4 -365,685.7 -340.5,685.7 -340.5,680.1 -371,680.1 -371,705 -340.9,705 -340.9,702.4 	"/>
</g>
<g id="XMLID_32_" class="st0">
	<path class="st2" d="M-295.8,701.6c1-1.9,1.5-3.7,1.5-5.6v-2.2c0-1.8-0.3-3.6-1-5.2c-0.6-1.7-1.6-3.1-2.9-4.4
		c-1.3-1.2-2.9-2.2-4.8-3c-1.8-0.7-4-1.1-6.6-1.1h-18V705h28.6C-297.6,704.1-296.5,702.9-295.8,701.6z M-302.7,702
		c-1.7,1.5-4.2,2.2-7.6,2.2h-11.2v-18.5h11.2c3.4,0,5.9,0.8,7.6,2.3c1.7,1.6,2.5,3.6,2.5,6.2v1.3
		C-300.3,698.3-301.1,700.5-302.7,702z"/>
</g>
<g id="XMLID_1_">
</g>
<g id="XMLID_2_">
</g>
<g id="XMLID_3_">
</g>
<g id="XMLID_5_">
</g>
<g id="XMLID_6_">
</g>
<g id="XMLID_7_">
</g>
<polygon class="st3" points="-183.9,242.9 -185.2,237.3 -195.6,237.3 -196.9,242.9 "/>
<g class="st0">
	<path class="st1" d="M-144.5,253.6c2,0,3.6-0.4,4.9-1.3c1.2-0.9,1.9-2.3,1.9-4.3v-0.4c0-2-0.6-3.5-1.9-4.3
		c-1.2-0.9-2.9-1.3-4.9-1.3h-6.9v11.7H-144.5z"/>
	<path class="st1" d="M-111.6,248.2c0.3,1.4,0.8,2.6,1.5,3.6c0.7,1,1.7,1.8,2.8,2.3c1.2,0.6,2.6,0.8,4.3,0.8c1.7,0,3.2-0.3,4.3-0.8
		c1.2-0.6,2.1-1.3,2.8-2.3c0.7-1,1.2-2.2,1.5-3.6c0.3-1.4,0.4-2.9,0.4-4.6v-6.5H-112v6.5C-112,245.3-111.8,246.8-111.6,248.2z"/>
	<path class="st1" d="M-65.4,252.2c1.4,1.7,3.6,2.5,6.6,2.5c3,0,5.2-0.8,6.6-2.5c1.4-1.7,2.1-4,2.1-7v-8.1h-17.3v8.1
		C-67.5,248.2-66.8,250.5-65.4,252.2z"/>
	<polygon class="st2" points="-184.6,242.8 -197.6,242.8 -196.3,237.1 -205.9,237.1 -212,262.6 -202.1,262.6 -199.6,251.8 
		-182.5,251.8 -180,262.6 -170.1,262.6 -176.2,237.1 -185.8,237.1 	"/>
	<path class="st2" d="M-161,253.6h-4.8v9.1h22.1c2.4,0,4.5-0.3,6.4-1c1.8-0.7,3.4-1.6,4.7-2.8c1.3-1.2,2.2-2.6,2.9-4.2
		c0.6-1.6,1-3.3,1-5.2v-0.9c0-2.9-0.8-5.2-2.4-6.9c-1.6-1.8-3.6-3-6.1-3.6v-0.9H-161V253.6z M-144.5,241.9c2,0,3.6,0.4,4.9,1.3
		c1.2,0.9,1.9,2.3,1.9,4.3v0.4c0,2-0.6,3.5-1.9,4.3c-1.2,0.9-2.9,1.3-4.9,1.3h-6.9v-11.7H-144.5z"/>
	<path class="st2" d="M-93.8,243.6c0,1.7-0.1,3.2-0.4,4.6c-0.3,1.4-0.8,2.6-1.5,3.6c-0.7,1-1.7,1.8-2.8,2.3
		c-1.2,0.6-2.6,0.8-4.3,0.8c-1.7,0-3.2-0.3-4.3-0.8c-1.2-0.6-2.1-1.3-2.8-2.3c-0.7-1-1.2-2.2-1.5-3.6c-0.3-1.4-0.4-2.9-0.4-4.6v-6.5
		h-9.5v5.9c0,6.7,1.6,11.8,4.9,15.3c3.3,3.5,7.8,5.3,13.6,5.3c5.8,0,10.4-1.8,13.6-5.3c3.3-3.5,4.9-8.6,4.9-15.3v-5.9h-9.5V243.6z"
		/>
	<path class="st2" d="M-50.2,245.2c0,3-0.7,5.3-2.1,7c-1.4,1.7-3.6,2.5-6.6,2.5c-3,0-5.2-0.8-6.6-2.5c-1.4-1.7-2.1-4-2.1-7v-8.1H-77
		v8.1c0,5.8,1.5,10.3,4.6,13.5c3,3.3,7.6,4.9,13.6,4.9c6,0,10.5-1.6,13.6-4.9c3-3.3,4.6-7.8,4.6-13.5v-8.1h-9.5V245.2z"/>
	<rect x="-19.5" y="237.1" class="st2" width="9.5" height="25.5"/>
</g>
<g>
	<path class="st3" d="M-139.6,249.5c-1.2-0.8-2.9-1.3-4.9-1.3h-6.9v11.5h6.9c2,0,3.6-0.4,4.9-1.3c1.2-0.8,1.9-2.3,1.9-4.3v-0.4
		C-137.8,251.7-138.4,250.3-139.6,249.5z"/>
	<polygon class="st3" points="-190.4,243.9 -191.7,243.9 -196.3,264 -185.8,264 	"/>
	<path class="st3" d="M-93.8,258.1c0-1.6-0.2-3.1-0.5-4.5c-0.3-1.4-0.9-2.6-1.6-3.6c-0.7-1-1.7-1.8-2.8-2.4
		c-1.2-0.6-2.5-0.9-4.2-0.9c-1.6,0-3,0.3-4.2,0.9c-1.2,0.6-2.1,1.4-2.8,2.4c-0.7,1-1.2,2.2-1.6,3.6c-0.3,1.4-0.5,2.9-0.5,4.5v5.9
		h18.1V258.1z"/>
	<polygon points="-200,239.1 -205.9,264 -196.3,264 -191.7,243.9 -190.4,243.9 -185.8,264 -176.2,264 -182.1,239.1 	"/>
	<path d="M-131.1,260c1.6-1.7,2.4-4,2.4-6.9v-0.9c0-1.9-0.3-3.6-1-5.2c-0.6-1.6-1.6-3-2.9-4.1c-1.3-1.2-2.8-2.1-4.7-2.7
		c-1.8-0.7-4-1-6.4-1h-22.1v9.1h4.8V264h23.8v-0.4C-134.7,262.9-132.7,261.7-131.1,260z M-137.8,254.2c0,2-0.6,3.4-1.9,4.3
		c-1.2,0.8-2.9,1.3-4.9,1.3h-6.9v-11.5h6.9c2,0,3.6,0.4,4.9,1.3c1.2,0.8,1.9,2.3,1.9,4.3V254.2z"/>
	<path d="M-89.3,243.5c-3.3-3.6-7.8-5.4-13.6-5.4c-5.8,0-10.4,1.8-13.6,5.4c-3.3,3.6-4.9,8.7-4.9,15.2v5.3h9.5v-5.9
		c0-1.6,0.2-3.1,0.5-4.5c0.3-1.4,0.9-2.6,1.6-3.6c0.7-1,1.7-1.8,2.8-2.4c1.2-0.6,2.5-0.9,4.2-0.9c1.6,0,3,0.3,4.2,0.9
		c1.2,0.6,2.1,1.4,2.8,2.4c0.7,1,1.2,2.2,1.6,3.6c0.3,1.4,0.5,2.9,0.5,4.5v5.9h9.5v-5.3C-84.3,252.2-86,247.1-89.3,243.5z"/>
	<rect x="-50.2" y="239.1" width="9.5" height="24.9"/>
	<rect x="-77" y="239.1" width="9.5" height="24.9"/>
	<polygon points="-10,248.2 3.4,248.2 3.4,239.1 -32.9,239.1 -32.9,248.2 -19.5,248.2 -19.5,264 -10,264 	"/>
</g>
</svg>
